<mxfile host="65bd71144e">
    <diagram id="MoxgE1Hd8c-6P9EhcTV4" name="Page-1">
        <mxGraphModel dx="1175" dy="560" grid="1" gridSize="10" guides="1" tooltips="1" connect="1" arrows="1" fold="1" page="1" pageScale="1" pageWidth="1169" pageHeight="827" math="0" shadow="0">
            <root>
                <mxCell id="0"/>
                <mxCell id="1" parent="0"/>
                <mxCell id="2" value="ROSTLAUBE24.com" style="shape=umlFrame;tabPosition=left;html=1;boundedLbl=1;labelInHeader=1;width=130;height=30;" vertex="1" parent="1">
                    <mxGeometry x="160" y="39" width="880" height="750" as="geometry"/>
                </mxCell>
                <mxCell id="12" style="edgeStyle=none;html=1;exitX=0.5;exitY=0.5;exitDx=0;exitDy=0;exitPerimeter=0;endArrow=none;endFill=0;" edge="1" parent="1" source="6" target="10">
                    <mxGeometry relative="1" as="geometry"/>
                </mxCell>
                <mxCell id="6" value="Kunde" style="shape=umlActor;verticalLabelPosition=bottom;verticalAlign=top;html=1;" vertex="1" parent="1">
                    <mxGeometry x="60" y="320" width="30" height="60" as="geometry"/>
                </mxCell>
                <mxCell id="7" value="Mitarbeit" style="shape=umlActor;verticalLabelPosition=bottom;verticalAlign=top;html=1;" vertex="1" parent="1">
                    <mxGeometry x="1090" y="400" width="30" height="60" as="geometry"/>
                </mxCell>
                <mxCell id="10" value="Registrierung als&lt;br&gt;Nutzer" style="ellipse;whiteSpace=wrap;html=1;" vertex="1" parent="1">
                    <mxGeometry x="290" y="150" width="140" height="70" as="geometry"/>
                </mxCell>
                <mxCell id="13" value="Legitimierung mit Ausweis / FÃ¼hrerschein&amp;nbsp;" style="ellipse;whiteSpace=wrap;html=1;" vertex="1" parent="1">
                    <mxGeometry x="630" y="150" width="140" height="70" as="geometry"/>
                </mxCell>
                <mxCell id="14" value="&amp;lt;&amp;lt;include&amp;gt;&amp;gt;" style="html=1;verticalAlign=bottom;endArrow=open;dashed=1;endSize=8;entryX=0;entryY=0.5;entryDx=0;entryDy=0;exitX=1;exitY=0.5;exitDx=0;exitDy=0;" edge="1" parent="1" source="10" target="13">
                    <mxGeometry relative="1" as="geometry">
                        <mxPoint x="550" y="280" as="sourcePoint"/>
                        <mxPoint x="470" y="280" as="targetPoint"/>
                    </mxGeometry>
                </mxCell>
            </root>
        </mxGraphModel>
    </diagram>
</mxfile>